<svg width="20" height="20" viewBox="0 0 20 20" fill="none" xmlns="http://www.w3.org/2000/svg">
<mask id="mask0_418_780" style="mask-type:luminance" maskUnits="userSpaceOnUse" x="0" y="0" width="21" height="21">
<path fill-rule="evenodd" clip-rule="evenodd" d="M0.000183105 0.000183105H20.0029V20.0012H0.000183105V0.000183105Z" fill="white"/>
</mask>
<g mask="url(#mask0_418_780)">
<path fill-rule="evenodd" clip-rule="evenodd" d="M8.94491 18.0755C9.53491 18.6515 10.4849 18.6445 11.0709 18.0555L11.7929 17.3355C12.3529 16.7765 13.1269 16.4575 13.9159 16.4575H14.9459C15.7799 16.4575 16.4579 15.7795 16.4579 14.9465V13.9175C16.4579 13.1165 16.7679 12.3635 17.3339 11.7965L18.0539 11.0755C18.3469 10.7815 18.5039 10.4005 18.5029 9.99651C18.5019 9.59351 18.3429 9.21451 18.0559 8.92851L17.3349 8.20651C16.7679 7.63551 16.4579 6.88351 16.4579 6.08251V5.05551C16.4579 4.22151 15.7799 3.54351 14.9459 3.54351H13.9179C13.1169 3.54351 12.3639 3.23251 11.7969 2.66951L11.0749 1.94651C10.4739 1.35151 9.5149 1.35451 8.92791 1.94551L8.20891 2.66651C7.63491 3.23351 6.88191 3.54351 6.08391 3.54351H5.05491C4.22191 3.54451 3.54391 4.22251 3.54391 5.05551V6.08051C3.54391 6.88151 3.23291 7.63451 2.66891 8.20251L1.95891 8.91351C1.95191 8.92151 1.94491 8.92751 1.93791 8.93451C1.35091 9.52551 1.35391 10.4845 1.94491 11.0715L2.66691 11.7935C3.23291 12.3615 3.54391 13.1145 3.54391 13.9155V14.9465C3.54391 15.7795 4.22091 16.4575 5.05491 16.4575H6.0819C6.8839 16.4585 7.63691 16.7695 8.20391 17.3345L8.92491 18.0535C8.93091 18.0605 8.93791 18.0675 8.94491 18.0755ZM9.99891 20.0015C9.2319 20.0015 8.46491 19.7115 7.87791 19.1295C7.86991 19.1215 7.86191 19.1135 7.85391 19.1045L7.14391 18.3955C6.86091 18.1145 6.48291 17.9585 6.08091 17.9575H5.05491C3.39391 17.9575 2.04391 16.6065 2.04391 14.9465V13.9155C2.04391 13.5135 1.88691 13.1365 1.60491 12.8525L0.885905 12.1345C-0.282095 10.9725 -0.296095 9.08051 0.850905 7.90051C0.859905 7.89151 0.868905 7.88251 0.877905 7.87351L1.60591 7.14351C1.88691 6.86051 2.04391 6.48151 2.04391 6.08051V5.05551C2.04391 3.39551 3.39391 2.04451 5.05391 2.04351H6.08391C6.48491 2.04351 6.86291 1.88651 7.14991 1.60351L7.86491 0.886509C9.03391 -0.290491 10.9449 -0.296491 12.1239 0.875509L12.8549 1.60651C13.1379 1.88751 13.5159 2.04351 13.9179 2.04351H14.9459C16.6069 2.04351 17.9579 3.39451 17.9579 5.05551V6.08251C17.9579 6.48351 18.1139 6.86251 18.3969 7.14751L19.1149 7.86651C19.6839 8.43151 19.9999 9.18651 20.0029 9.99151C20.0059 10.7965 19.6949 11.5535 19.1279 12.1245L18.3949 12.8555C18.1139 13.1385 17.9579 13.5155 17.9579 13.9175V14.9465C17.9579 16.6065 16.6069 17.9575 14.9469 17.9575H13.9159C13.5199 17.9575 13.1329 18.1175 12.8519 18.3965L12.1339 19.1145C11.5469 19.7055 10.7729 20.0015 9.99891 20.0015Z" fill="black"/>
</g>
<path fill-rule="evenodd" clip-rule="evenodd" d="M7.43029 13.3215C7.23829 13.3215 7.04629 13.2485 6.90029 13.1015C6.60729 12.8085 6.60729 12.3345 6.90029 12.0415L12.0403 6.90048C12.3333 6.60748 12.8083 6.60748 13.1013 6.90048C13.3943 7.19348 13.3943 7.66848 13.1013 7.96148L7.96029 13.1015C7.81429 13.2485 7.62229 13.3215 7.43029 13.3215Z" fill="black"/>
<path fill-rule="evenodd" clip-rule="evenodd" d="M12.5035 13.4992C11.9505 13.4992 11.4985 13.0522 11.4985 12.4992C11.4985 11.9462 11.9415 11.4992 12.4945 11.4992H12.5035C13.0565 11.4992 13.5035 11.9462 13.5035 12.4992C13.5035 13.0522 13.0565 13.4992 12.5035 13.4992Z" fill="black"/>
<path fill-rule="evenodd" clip-rule="evenodd" d="M7.5035 8.49921C6.9505 8.49921 6.4985 8.05221 6.4985 7.49921C6.4985 6.94621 6.9415 6.49921 7.4945 6.49921H7.5035C8.0565 6.49921 8.5035 6.94621 8.5035 7.49921C8.5035 8.05221 8.0565 8.49921 7.5035 8.49921Z" fill="black"/>
</svg>
